<svg width="62" height="63" viewBox="0 0 62 63" fill="none" xmlns="http://www.w3.org/2000/svg">
<g id="Vector">
<path d="M2.13793 0.414551H0V2.55248H2.13793V0.414551Z" fill="black"/>
<path d="M4.27586 0.414551H2.13793V2.55248H4.27586V0.414551Z" fill="black"/>
<path d="M6.41379 0.414551H4.27586V2.55248H6.41379V0.414551Z" fill="black"/>
<path d="M8.55172 0.414551H6.41379V2.55248H8.55172V0.414551Z" fill="black"/>
<path d="M10.6897 0.414551H8.55172V2.55248H10.6897V0.414551Z" fill="black"/>
<path d="M12.8276 0.414551H10.6897V2.55248H12.8276V0.414551Z" fill="black"/>
<path d="M14.9655 0.414551H12.8276V2.55248H14.9655V0.414551Z" fill="black"/>
<path d="M19.2414 0.414551H17.1034V2.55248H19.2414V0.414551Z" fill="black"/>
<path d="M23.5172 0.414551H21.3793V2.55248H23.5172V0.414551Z" fill="black"/>
<path d="M34.2069 0.414551H32.069V2.55248H34.2069V0.414551Z" fill="black"/>
<path d="M36.3448 0.414551H34.2069V2.55248H36.3448V0.414551Z" fill="black"/>
<path d="M40.6207 0.414551H38.4828V2.55248H40.6207V0.414551Z" fill="black"/>
<path d="M44.8965 0.414551H42.7586V2.55248H44.8965V0.414551Z" fill="black"/>
<path d="M49.1724 0.414551H47.0345V2.55248H49.1724V0.414551Z" fill="black"/>
<path d="M51.3103 0.414551H49.1724V2.55248H51.3103V0.414551Z" fill="black"/>
<path d="M53.4483 0.414551H51.3103V2.55248H53.4483V0.414551Z" fill="black"/>
<path d="M55.5862 0.414551H53.4483V2.55248H55.5862V0.414551Z" fill="black"/>
<path d="M57.7241 0.414551H55.5862V2.55248H57.7241V0.414551Z" fill="black"/>
<path d="M59.8621 0.414551H57.7241V2.55248H59.8621V0.414551Z" fill="black"/>
<path d="M62 0.414551H59.8621V2.55248H62V0.414551Z" fill="black"/>
<path d="M2.13793 2.55248H0V4.69041H2.13793V2.55248Z" fill="black"/>
<path d="M14.9655 2.55248H12.8276V4.69041H14.9655V2.55248Z" fill="black"/>
<path d="M21.3793 2.55248H19.2414V4.69041H21.3793V2.55248Z" fill="black"/>
<path d="M23.5172 2.55248H21.3793V4.69041H23.5172V2.55248Z" fill="black"/>
<path d="M25.6552 2.55248H23.5172V4.69041H25.6552V2.55248Z" fill="black"/>
<path d="M27.7931 2.55248H25.6552V4.69041H27.7931V2.55248Z" fill="black"/>
<path d="M32.069 2.55248H29.931V4.69041H32.069V2.55248Z" fill="black"/>
<path d="M34.2069 2.55248H32.069V4.69041H34.2069V2.55248Z" fill="black"/>
<path d="M49.1724 2.55248H47.0345V4.69041H49.1724V2.55248Z" fill="black"/>
<path d="M62 2.55248H59.8621V4.69041H62V2.55248Z" fill="black"/>
<path d="M2.13793 4.69041H0V6.82834H2.13793V4.69041Z" fill="black"/>
<path d="M6.41379 4.69041H4.27586V6.82834H6.41379V4.69041Z" fill="black"/>
<path d="M8.55172 4.69041H6.41379V6.82834H8.55172V4.69041Z" fill="black"/>
<path d="M10.6897 4.69041H8.55172V6.82834H10.6897V4.69041Z" fill="black"/>
<path d="M14.9655 4.69041H12.8276V6.82834H14.9655V4.69041Z" fill="black"/>
<path d="M23.5172 4.69041H21.3793V6.82834H23.5172V4.69041Z" fill="black"/>
<path d="M25.6552 4.69041H23.5172V6.82834H25.6552V4.69041Z" fill="black"/>
<path d="M27.7931 4.69041H25.6552V6.82834H27.7931V4.69041Z" fill="black"/>
<path d="M29.931 4.69041H27.7931V6.82834H29.931V4.69041Z" fill="black"/>
<path d="M34.2069 4.69041H32.069V6.82834H34.2069V4.69041Z" fill="black"/>
<path d="M36.3448 4.69041H34.2069V6.82834H36.3448V4.69041Z" fill="black"/>
<path d="M42.7586 4.69041H40.6207V6.82834H42.7586V4.69041Z" fill="black"/>
<path d="M44.8965 4.69041H42.7586V6.82834H44.8965V4.69041Z" fill="black"/>
<path d="M49.1724 4.69041H47.0345V6.82834H49.1724V4.69041Z" fill="black"/>
<path d="M53.4483 4.69041H51.3103V6.82834H53.4483V4.69041Z" fill="black"/>
<path d="M55.5862 4.69041H53.4483V6.82834H55.5862V4.69041Z" fill="black"/>
<path d="M57.7241 4.69041H55.5862V6.82834H57.7241V4.69041Z" fill="black"/>
<path d="M62 4.69041H59.8621V6.82834H62V4.69041Z" fill="black"/>
<path d="M2.13793 6.82834H0V8.96627H2.13793V6.82834Z" fill="black"/>
<path d="M6.41379 6.82834H4.27586V8.96627H6.41379V6.82834Z" fill="black"/>
<path d="M8.55172 6.82834H6.41379V8.96627H8.55172V6.82834Z" fill="black"/>
<path d="M10.6897 6.82834H8.55172V8.96627H10.6897V6.82834Z" fill="black"/>
<path d="M14.9655 6.82834H12.8276V8.96627H14.9655V6.82834Z" fill="black"/>
<path d="M19.2414 6.82834H17.1034V8.96627H19.2414V6.82834Z" fill="black"/>
<path d="M21.3793 6.82834H19.2414V8.96627H21.3793V6.82834Z" fill="black"/>
<path d="M23.5172 6.82834H21.3793V8.96627H23.5172V6.82834Z" fill="black"/>
<path d="M25.6552 6.82834H23.5172V8.96627H25.6552V6.82834Z" fill="black"/>
<path d="M29.931 6.82834H27.7931V8.96627H29.931V6.82834Z" fill="black"/>
<path d="M36.3448 6.82834H34.2069V8.96627H36.3448V6.82834Z" fill="black"/>
<path d="M42.7586 6.82834H40.6207V8.96627H42.7586V6.82834Z" fill="black"/>
<path d="M49.1724 6.82834H47.0345V8.96627H49.1724V6.82834Z" fill="black"/>
<path d="M53.4483 6.82834H51.3103V8.96627H53.4483V6.82834Z" fill="black"/>
<path d="M55.5862 6.82834H53.4483V8.96627H55.5862V6.82834Z" fill="black"/>
<path d="M57.7241 6.82834H55.5862V8.96627H57.7241V6.82834Z" fill="black"/>
<path d="M62 6.82834H59.8621V8.96627H62V6.82834Z" fill="black"/>
<path d="M2.13793 8.96627H0V11.1042H2.13793V8.96627Z" fill="black"/>
<path d="M6.41379 8.96627H4.27586V11.1042H6.41379V8.96627Z" fill="black"/>
<path d="M8.55172 8.96627H6.41379V11.1042H8.55172V8.96627Z" fill="black"/>
<path d="M10.6897 8.96627H8.55172V11.1042H10.6897V8.96627Z" fill="black"/>
<path d="M14.9655 8.96627H12.8276V11.1042H14.9655V8.96627Z" fill="black"/>
<path d="M29.931 8.96627H27.7931V11.1042H29.931V8.96627Z" fill="black"/>
<path d="M32.069 8.96627H29.931V11.1042H32.069V8.96627Z" fill="black"/>
<path d="M34.2069 8.96627H32.069V11.1042H34.2069V8.96627Z" fill="black"/>
<path d="M38.4828 8.96627H36.3448V11.1042H38.4828V8.96627Z" fill="black"/>
<path d="M49.1724 8.96627H47.0345V11.1042H49.1724V8.96627Z" fill="black"/>
<path d="M53.4483 8.96627H51.3103V11.1042H53.4483V8.96627Z" fill="black"/>
<path d="M55.5862 8.96627H53.4483V11.1042H55.5862V8.96627Z" fill="black"/>
<path d="M57.7241 8.96627H55.5862V11.1042H57.7241V8.96627Z" fill="black"/>
<path d="M62 8.96627H59.8621V11.1042H62V8.96627Z" fill="black"/>
<path d="M2.13793 11.1042H0V13.2421H2.13793V11.1042Z" fill="black"/>
<path d="M14.9655 11.1042H12.8276V13.2421H14.9655V11.1042Z" fill="black"/>
<path d="M19.2414 11.1042H17.1034V13.2421H19.2414V11.1042Z" fill="black"/>
<path d="M21.3793 11.1042H19.2414V13.2421H21.3793V11.1042Z" fill="black"/>
<path d="M23.5172 11.1042H21.3793V13.2421H23.5172V11.1042Z" fill="black"/>
<path d="M25.6552 11.1042H23.5172V13.2421H25.6552V11.1042Z" fill="black"/>
<path d="M27.7931 11.1042H25.6552V13.2421H27.7931V11.1042Z" fill="black"/>
<path d="M29.931 11.1042H27.7931V13.2421H29.931V11.1042Z" fill="black"/>
<path d="M34.2069 11.1042H32.069V13.2421H34.2069V11.1042Z" fill="black"/>
<path d="M36.3448 11.1042H34.2069V13.2421H36.3448V11.1042Z" fill="black"/>
<path d="M49.1724 11.1042H47.0345V13.2421H49.1724V11.1042Z" fill="black"/>
<path d="M62 11.1042H59.8621V13.2421H62V11.1042Z" fill="black"/>
<path d="M2.13793 13.2421H0V15.3801H2.13793V13.2421Z" fill="black"/>
<path d="M4.27586 13.2421H2.13793V15.3801H4.27586V13.2421Z" fill="black"/>
<path d="M6.41379 13.2421H4.27586V15.3801H6.41379V13.2421Z" fill="black"/>
<path d="M8.55172 13.2421H6.41379V15.3801H8.55172V13.2421Z" fill="black"/>
<path d="M10.6897 13.2421H8.55172V15.3801H10.6897V13.2421Z" fill="black"/>
<path d="M12.8276 13.2421H10.6897V15.3801H12.8276V13.2421Z" fill="black"/>
<path d="M14.9655 13.2421H12.8276V15.3801H14.9655V13.2421Z" fill="black"/>
<path d="M19.2414 13.2421H17.1034V15.3801H19.2414V13.2421Z" fill="black"/>
<path d="M23.5172 13.2421H21.3793V15.3801H23.5172V13.2421Z" fill="black"/>
<path d="M27.7931 13.2421H25.6552V15.3801H27.7931V13.2421Z" fill="black"/>
<path d="M32.069 13.2421H29.931V15.3801H32.069V13.2421Z" fill="black"/>
<path d="M36.3448 13.2421H34.2069V15.3801H36.3448V13.2421Z" fill="black"/>
<path d="M40.6207 13.2421H38.4828V15.3801H40.6207V13.2421Z" fill="black"/>
<path d="M44.8965 13.2421H42.7586V15.3801H44.8965V13.2421Z" fill="black"/>
<path d="M49.1724 13.2421H47.0345V15.3801H49.1724V13.2421Z" fill="black"/>
<path d="M51.3103 13.2421H49.1724V15.3801H51.3103V13.2421Z" fill="black"/>
<path d="M53.4483 13.2421H51.3103V15.3801H53.4483V13.2421Z" fill="black"/>
<path d="M55.5862 13.2421H53.4483V15.3801H55.5862V13.2421Z" fill="black"/>
<path d="M57.7241 13.2421H55.5862V15.3801H57.7241V13.2421Z" fill="black"/>
<path d="M59.8621 13.2421H57.7241V15.3801H59.8621V13.2421Z" fill="black"/>
<path d="M62 13.2421H59.8621V15.3801H62V13.2421Z" fill="black"/>
<path d="M21.3793 15.3801H19.2414V17.518H21.3793V15.3801Z" fill="black"/>
<path d="M32.069 15.3801H29.931V17.518H32.069V15.3801Z" fill="black"/>
<path d="M38.4828 15.3801H36.3448V17.518H38.4828V15.3801Z" fill="black"/>
<path d="M40.6207 15.3801H38.4828V17.518H40.6207V15.3801Z" fill="black"/>
<path d="M42.7586 15.3801H40.6207V17.518H42.7586V15.3801Z" fill="black"/>
<path d="M44.8965 15.3801H42.7586V17.518H44.8965V15.3801Z" fill="black"/>
<path d="M12.8276 17.518H10.6897V19.6559H12.8276V17.518Z" fill="black"/>
<path d="M14.9655 17.518H12.8276V19.6559H14.9655V17.518Z" fill="black"/>
<path d="M19.2414 17.518H17.1034V19.6559H19.2414V17.518Z" fill="black"/>
<path d="M21.3793 17.518H19.2414V19.6559H21.3793V17.518Z" fill="black"/>
<path d="M25.6552 17.518H23.5172V19.6559H25.6552V17.518Z" fill="black"/>
<path d="M27.7931 17.518H25.6552V19.6559H27.7931V17.518Z" fill="black"/>
<path d="M32.069 17.518H29.931V19.6559H32.069V17.518Z" fill="black"/>
<path d="M34.2069 17.518H32.069V19.6559H34.2069V17.518Z" fill="black"/>
<path d="M36.3448 17.518H34.2069V19.6559H36.3448V17.518Z" fill="black"/>
<path d="M38.4828 17.518H36.3448V19.6559H38.4828V17.518Z" fill="black"/>
<path d="M47.0345 17.518H44.8965V19.6559H47.0345V17.518Z" fill="black"/>
<path d="M51.3103 17.518H49.1724V19.6559H51.3103V17.518Z" fill="black"/>
<path d="M55.5862 17.518H53.4483V19.6559H55.5862V17.518Z" fill="black"/>
<path d="M62 17.518H59.8621V19.6559H62V17.518Z" fill="black"/>
<path d="M2.13793 19.6559H0V21.7939H2.13793V19.6559Z" fill="black"/>
<path d="M8.55172 19.6559H6.41379V21.7939H8.55172V19.6559Z" fill="black"/>
<path d="M17.1034 19.6559H14.9655V21.7939H17.1034V19.6559Z" fill="black"/>
<path d="M19.2414 19.6559H17.1034V21.7939H19.2414V19.6559Z" fill="black"/>
<path d="M21.3793 19.6559H19.2414V21.7939H21.3793V19.6559Z" fill="black"/>
<path d="M34.2069 19.6559H32.069V21.7939H34.2069V19.6559Z" fill="black"/>
<path d="M38.4828 19.6559H36.3448V21.7939H38.4828V19.6559Z" fill="black"/>
<path d="M42.7586 19.6559H40.6207V21.7939H42.7586V19.6559Z" fill="black"/>
<path d="M47.0345 19.6559H44.8965V21.7939H47.0345V19.6559Z" fill="black"/>
<path d="M2.13793 21.7939H0V23.9318H2.13793V21.7939Z" fill="black"/>
<path d="M8.55172 21.7939H6.41379V23.9318H8.55172V21.7939Z" fill="black"/>
<path d="M10.6897 21.7939H8.55172V23.9318H10.6897V21.7939Z" fill="black"/>
<path d="M14.9655 21.7939H12.8276V23.9318H14.9655V21.7939Z" fill="black"/>
<path d="M17.1034 21.7939H14.9655V23.9318H17.1034V21.7939Z" fill="black"/>
<path d="M19.2414 21.7939H17.1034V23.9318H19.2414V21.7939Z" fill="black"/>
<path d="M23.5172 21.7939H21.3793V23.9318H23.5172V21.7939Z" fill="black"/>
<path d="M27.7931 21.7939H25.6552V23.9318H27.7931V21.7939Z" fill="black"/>
<path d="M34.2069 21.7939H32.069V23.9318H34.2069V21.7939Z" fill="black"/>
<path d="M40.6207 21.7939H38.4828V23.9318H40.6207V21.7939Z" fill="black"/>
<path d="M44.8965 21.7939H42.7586V23.9318H44.8965V21.7939Z" fill="black"/>
<path d="M49.1724 21.7939H47.0345V23.9318H49.1724V21.7939Z" fill="black"/>
<path d="M53.4483 21.7939H51.3103V23.9318H53.4483V21.7939Z" fill="black"/>
<path d="M57.7241 21.7939H55.5862V23.9318H57.7241V21.7939Z" fill="black"/>
<path d="M62 21.7939H59.8621V23.9318H62V21.7939Z" fill="black"/>
<path d="M12.8276 23.9318H10.6897V26.0697H12.8276V23.9318Z" fill="black"/>
<path d="M23.5172 23.9318H21.3793V26.0697H23.5172V23.9318Z" fill="black"/>
<path d="M29.931 23.9318H27.7931V26.0697H29.931V23.9318Z" fill="black"/>
<path d="M32.069 23.9318H29.931V26.0697H32.069V23.9318Z" fill="black"/>
<path d="M36.3448 23.9318H34.2069V26.0697H36.3448V23.9318Z" fill="black"/>
<path d="M40.6207 23.9318H38.4828V26.0697H40.6207V23.9318Z" fill="black"/>
<path d="M42.7586 23.9318H40.6207V26.0697H42.7586V23.9318Z" fill="black"/>
<path d="M44.8965 23.9318H42.7586V26.0697H44.8965V23.9318Z" fill="black"/>
<path d="M47.0345 23.9318H44.8965V26.0697H47.0345V23.9318Z" fill="black"/>
<path d="M51.3103 23.9318H49.1724V26.0697H51.3103V23.9318Z" fill="black"/>
<path d="M53.4483 23.9318H51.3103V26.0697H53.4483V23.9318Z" fill="black"/>
<path d="M6.41379 26.0697H4.27586V28.2077H6.41379V26.0697Z" fill="black"/>
<path d="M14.9655 26.0697H12.8276V28.2077H14.9655V26.0697Z" fill="black"/>
<path d="M19.2414 26.0697H17.1034V28.2077H19.2414V26.0697Z" fill="black"/>
<path d="M21.3793 26.0697H19.2414V28.2077H21.3793V26.0697Z" fill="black"/>
<path d="M23.5172 26.0697H21.3793V28.2077H23.5172V26.0697Z" fill="black"/>
<path d="M25.6552 26.0697H23.5172V28.2077H25.6552V26.0697Z" fill="black"/>
<path d="M27.7931 26.0697H25.6552V28.2077H27.7931V26.0697Z" fill="black"/>
<path d="M32.069 26.0697H29.931V28.2077H32.069V26.0697Z" fill="black"/>
<path d="M34.2069 26.0697H32.069V28.2077H34.2069V26.0697Z" fill="black"/>
<path d="M40.6207 26.0697H38.4828V28.2077H40.6207V26.0697Z" fill="black"/>
<path d="M42.7586 26.0697H40.6207V28.2077H42.7586V26.0697Z" fill="black"/>
<path d="M49.1724 26.0697H47.0345V28.2077H49.1724V26.0697Z" fill="black"/>
<path d="M53.4483 26.0697H51.3103V28.2077H53.4483V26.0697Z" fill="black"/>
<path d="M57.7241 26.0697H55.5862V28.2077H57.7241V26.0697Z" fill="black"/>
<path d="M62 26.0697H59.8621V28.2077H62V26.0697Z" fill="black"/>
<path d="M2.13793 28.2077H0V30.3456H2.13793V28.2077Z" fill="black"/>
<path d="M4.27586 28.2077H2.13793V30.3456H4.27586V28.2077Z" fill="black"/>
<path d="M6.41379 28.2077H4.27586V30.3456H6.41379V28.2077Z" fill="black"/>
<path d="M8.55172 28.2077H6.41379V30.3456H8.55172V28.2077Z" fill="black"/>
<path d="M10.6897 28.2077H8.55172V30.3456H10.6897V28.2077Z" fill="black"/>
<path d="M12.8276 28.2077H10.6897V30.3456H12.8276V28.2077Z" fill="black"/>
<path d="M34.2069 28.2077H32.069V30.3456H34.2069V28.2077Z" fill="black"/>
<path d="M36.3448 28.2077H34.2069V30.3456H36.3448V28.2077Z" fill="black"/>
<path d="M40.6207 28.2077H38.4828V30.3456H40.6207V28.2077Z" fill="black"/>
<path d="M42.7586 28.2077H40.6207V30.3456H42.7586V28.2077Z" fill="black"/>
<path d="M47.0345 28.2077H44.8965V30.3456H47.0345V28.2077Z" fill="black"/>
<path d="M49.1724 28.2077H47.0345V30.3456H49.1724V28.2077Z" fill="black"/>
<path d="M51.3103 28.2077H49.1724V30.3456H51.3103V28.2077Z" fill="black"/>
<path d="M59.8621 28.2077H57.7241V30.3456H59.8621V28.2077Z" fill="black"/>
<path d="M62 28.2077H59.8621V30.3456H62V28.2077Z" fill="black"/>
<path d="M4.27586 30.3456H2.13793V32.4835H4.27586V30.3456Z" fill="black"/>
<path d="M8.55172 30.3456H6.41379V32.4835H8.55172V30.3456Z" fill="black"/>
<path d="M10.6897 30.3456H8.55172V32.4835H10.6897V30.3456Z" fill="black"/>
<path d="M12.8276 30.3456H10.6897V32.4835H12.8276V30.3456Z" fill="black"/>
<path d="M14.9655 30.3456H12.8276V32.4835H14.9655V30.3456Z" fill="black"/>
<path d="M17.1034 30.3456H14.9655V32.4835H17.1034V30.3456Z" fill="black"/>
<path d="M21.3793 30.3456H19.2414V32.4835H21.3793V30.3456Z" fill="black"/>
<path d="M25.6552 30.3456H23.5172V32.4835H25.6552V30.3456Z" fill="black"/>
<path d="M34.2069 30.3456H32.069V32.4835H34.2069V30.3456Z" fill="black"/>
<path d="M36.3448 30.3456H34.2069V32.4835H36.3448V30.3456Z" fill="black"/>
<path d="M44.8965 30.3456H42.7586V32.4835H44.8965V30.3456Z" fill="black"/>
<path d="M49.1724 30.3456H47.0345V32.4835H49.1724V30.3456Z" fill="black"/>
<path d="M53.4483 30.3456H51.3103V32.4835H53.4483V30.3456Z" fill="black"/>
<path d="M55.5862 30.3456H53.4483V32.4835H55.5862V30.3456Z" fill="black"/>
<path d="M62 30.3456H59.8621V32.4835H62V30.3456Z" fill="black"/>
<path d="M4.27586 32.4835H2.13793V34.6214H4.27586V32.4835Z" fill="black"/>
<path d="M8.55172 32.4835H6.41379V34.6214H8.55172V32.4835Z" fill="black"/>
<path d="M19.2414 32.4835H17.1034V34.6214H19.2414V32.4835Z" fill="black"/>
<path d="M21.3793 32.4835H19.2414V34.6214H21.3793V32.4835Z" fill="black"/>
<path d="M25.6552 32.4835H23.5172V34.6214H25.6552V32.4835Z" fill="black"/>
<path d="M29.931 32.4835H27.7931V34.6214H29.931V32.4835Z" fill="black"/>
<path d="M32.069 32.4835H29.931V34.6214H32.069V32.4835Z" fill="black"/>
<path d="M36.3448 32.4835H34.2069V34.6214H36.3448V32.4835Z" fill="black"/>
<path d="M38.4828 32.4835H36.3448V34.6214H38.4828V32.4835Z" fill="black"/>
<path d="M42.7586 32.4835H40.6207V34.6214H42.7586V32.4835Z" fill="black"/>
<path d="M47.0345 32.4835H44.8965V34.6214H47.0345V32.4835Z" fill="black"/>
<path d="M49.1724 32.4835H47.0345V34.6214H49.1724V32.4835Z" fill="black"/>
<path d="M53.4483 32.4835H51.3103V34.6214H53.4483V32.4835Z" fill="black"/>
<path d="M55.5862 32.4835H53.4483V34.6214H55.5862V32.4835Z" fill="black"/>
<path d="M59.8621 32.4835H57.7241V34.6214H59.8621V32.4835Z" fill="black"/>
<path d="M2.13793 34.6214H0V36.7594H2.13793V34.6214Z" fill="black"/>
<path d="M6.41379 34.6214H4.27586V36.7594H6.41379V34.6214Z" fill="black"/>
<path d="M10.6897 34.6214H8.55172V36.7594H10.6897V34.6214Z" fill="black"/>
<path d="M14.9655 34.6214H12.8276V36.7594H14.9655V34.6214Z" fill="black"/>
<path d="M23.5172 34.6214H21.3793V36.7594H23.5172V34.6214Z" fill="black"/>
<path d="M27.7931 34.6214H25.6552V36.7594H27.7931V34.6214Z" fill="black"/>
<path d="M32.069 34.6214H29.931V36.7594H32.069V34.6214Z" fill="black"/>
<path d="M34.2069 34.6214H32.069V36.7594H34.2069V34.6214Z" fill="black"/>
<path d="M36.3448 34.6214H34.2069V36.7594H36.3448V34.6214Z" fill="black"/>
<path d="M42.7586 34.6214H40.6207V36.7594H42.7586V34.6214Z" fill="black"/>
<path d="M44.8965 34.6214H42.7586V36.7594H44.8965V34.6214Z" fill="black"/>
<path d="M47.0345 34.6214H44.8965V36.7594H47.0345V34.6214Z" fill="black"/>
<path d="M51.3103 34.6214H49.1724V36.7594H51.3103V34.6214Z" fill="black"/>
<path d="M55.5862 34.6214H53.4483V36.7594H55.5862V34.6214Z" fill="black"/>
<path d="M4.27586 36.7594H2.13793V38.8973H4.27586V36.7594Z" fill="black"/>
<path d="M6.41379 36.7594H4.27586V38.8973H6.41379V36.7594Z" fill="black"/>
<path d="M17.1034 36.7594H14.9655V38.8973H17.1034V36.7594Z" fill="black"/>
<path d="M23.5172 36.7594H21.3793V38.8973H23.5172V36.7594Z" fill="black"/>
<path d="M27.7931 36.7594H25.6552V38.8973H27.7931V36.7594Z" fill="black"/>
<path d="M29.931 36.7594H27.7931V38.8973H29.931V36.7594Z" fill="black"/>
<path d="M34.2069 36.7594H32.069V38.8973H34.2069V36.7594Z" fill="black"/>
<path d="M36.3448 36.7594H34.2069V38.8973H36.3448V36.7594Z" fill="black"/>
<path d="M40.6207 36.7594H38.4828V38.8973H40.6207V36.7594Z" fill="black"/>
<path d="M42.7586 36.7594H40.6207V38.8973H42.7586V36.7594Z" fill="black"/>
<path d="M49.1724 36.7594H47.0345V38.8973H49.1724V36.7594Z" fill="black"/>
<path d="M2.13793 38.8973H0V41.0352H2.13793V38.8973Z" fill="black"/>
<path d="M4.27586 38.8973H2.13793V41.0352H4.27586V38.8973Z" fill="black"/>
<path d="M6.41379 38.8973H4.27586V41.0352H6.41379V38.8973Z" fill="black"/>
<path d="M8.55172 38.8973H6.41379V41.0352H8.55172V38.8973Z" fill="black"/>
<path d="M10.6897 38.8973H8.55172V41.0352H10.6897V38.8973Z" fill="black"/>
<path d="M14.9655 38.8973H12.8276V41.0352H14.9655V38.8973Z" fill="black"/>
<path d="M17.1034 38.8973H14.9655V41.0352H17.1034V38.8973Z" fill="black"/>
<path d="M19.2414 38.8973H17.1034V41.0352H19.2414V38.8973Z" fill="black"/>
<path d="M29.931 38.8973H27.7931V41.0352H29.931V38.8973Z" fill="black"/>
<path d="M34.2069 38.8973H32.069V41.0352H34.2069V38.8973Z" fill="black"/>
<path d="M38.4828 38.8973H36.3448V41.0352H38.4828V38.8973Z" fill="black"/>
<path d="M40.6207 38.8973H38.4828V41.0352H40.6207V38.8973Z" fill="black"/>
<path d="M42.7586 38.8973H40.6207V41.0352H42.7586V38.8973Z" fill="black"/>
<path d="M44.8965 38.8973H42.7586V41.0352H44.8965V38.8973Z" fill="black"/>
<path d="M51.3103 38.8973H49.1724V41.0352H51.3103V38.8973Z" fill="black"/>
<path d="M53.4483 38.8973H51.3103V41.0352H53.4483V38.8973Z" fill="black"/>
<path d="M2.13793 41.0352H0V43.1732H2.13793V41.0352Z" fill="black"/>
<path d="M12.8276 41.0352H10.6897V43.1732H12.8276V41.0352Z" fill="black"/>
<path d="M19.2414 41.0352H17.1034V43.1732H19.2414V41.0352Z" fill="black"/>
<path d="M23.5172 41.0352H21.3793V43.1732H23.5172V41.0352Z" fill="black"/>
<path d="M25.6552 41.0352H23.5172V43.1732H25.6552V41.0352Z" fill="black"/>
<path d="M29.931 41.0352H27.7931V43.1732H29.931V41.0352Z" fill="black"/>
<path d="M42.7586 41.0352H40.6207V43.1732H42.7586V41.0352Z" fill="black"/>
<path d="M55.5862 41.0352H53.4483V43.1732H55.5862V41.0352Z" fill="black"/>
<path d="M57.7241 41.0352H55.5862V43.1732H57.7241V41.0352Z" fill="black"/>
<path d="M59.8621 41.0352H57.7241V43.1732H59.8621V41.0352Z" fill="black"/>
<path d="M6.41379 43.1732H4.27586V45.3111H6.41379V43.1732Z" fill="black"/>
<path d="M14.9655 43.1732H12.8276V45.3111H14.9655V43.1732Z" fill="black"/>
<path d="M21.3793 43.1732H19.2414V45.3111H21.3793V43.1732Z" fill="black"/>
<path d="M23.5172 43.1732H21.3793V45.3111H23.5172V43.1732Z" fill="black"/>
<path d="M29.931 43.1732H27.7931V45.3111H29.931V43.1732Z" fill="black"/>
<path d="M34.2069 43.1732H32.069V45.3111H34.2069V43.1732Z" fill="black"/>
<path d="M36.3448 43.1732H34.2069V45.3111H36.3448V43.1732Z" fill="black"/>
<path d="M38.4828 43.1732H36.3448V45.3111H38.4828V43.1732Z" fill="black"/>
<path d="M44.8965 43.1732H42.7586V45.3111H44.8965V43.1732Z" fill="black"/>
<path d="M47.0345 43.1732H44.8965V45.3111H47.0345V43.1732Z" fill="black"/>
<path d="M49.1724 43.1732H47.0345V45.3111H49.1724V43.1732Z" fill="black"/>
<path d="M51.3103 43.1732H49.1724V45.3111H51.3103V43.1732Z" fill="black"/>
<path d="M53.4483 43.1732H51.3103V45.3111H53.4483V43.1732Z" fill="black"/>
<path d="M59.8621 43.1732H57.7241V45.3111H59.8621V43.1732Z" fill="black"/>
<path d="M62 43.1732H59.8621V45.3111H62V43.1732Z" fill="black"/>
<path d="M19.2414 45.3111H17.1034V47.449H19.2414V45.3111Z" fill="black"/>
<path d="M27.7931 45.3111H25.6552V47.449H27.7931V45.3111Z" fill="black"/>
<path d="M32.069 45.3111H29.931V47.449H32.069V45.3111Z" fill="black"/>
<path d="M34.2069 45.3111H32.069V47.449H34.2069V45.3111Z" fill="black"/>
<path d="M36.3448 45.3111H34.2069V47.449H36.3448V45.3111Z" fill="black"/>
<path d="M38.4828 45.3111H36.3448V47.449H38.4828V45.3111Z" fill="black"/>
<path d="M40.6207 45.3111H38.4828V47.449H40.6207V45.3111Z" fill="black"/>
<path d="M44.8965 45.3111H42.7586V47.449H44.8965V45.3111Z" fill="black"/>
<path d="M53.4483 45.3111H51.3103V47.449H53.4483V45.3111Z" fill="black"/>
<path d="M57.7241 45.3111H55.5862V47.449H57.7241V45.3111Z" fill="black"/>
<path d="M59.8621 45.3111H57.7241V47.449H59.8621V45.3111Z" fill="black"/>
<path d="M2.13793 47.449H0V49.587H2.13793V47.449Z" fill="black"/>
<path d="M4.27586 47.449H2.13793V49.587H4.27586V47.449Z" fill="black"/>
<path d="M6.41379 47.449H4.27586V49.587H6.41379V47.449Z" fill="black"/>
<path d="M8.55172 47.449H6.41379V49.587H8.55172V47.449Z" fill="black"/>
<path d="M10.6897 47.449H8.55172V49.587H10.6897V47.449Z" fill="black"/>
<path d="M12.8276 47.449H10.6897V49.587H12.8276V47.449Z" fill="black"/>
<path d="M14.9655 47.449H12.8276V49.587H14.9655V47.449Z" fill="black"/>
<path d="M21.3793 47.449H19.2414V49.587H21.3793V47.449Z" fill="black"/>
<path d="M25.6552 47.449H23.5172V49.587H25.6552V47.449Z" fill="black"/>
<path d="M27.7931 47.449H25.6552V49.587H27.7931V47.449Z" fill="black"/>
<path d="M32.069 47.449H29.931V49.587H32.069V47.449Z" fill="black"/>
<path d="M38.4828 47.449H36.3448V49.587H38.4828V47.449Z" fill="black"/>
<path d="M44.8965 47.449H42.7586V49.587H44.8965V47.449Z" fill="black"/>
<path d="M49.1724 47.449H47.0345V49.587H49.1724V47.449Z" fill="black"/>
<path d="M53.4483 47.449H51.3103V49.587H53.4483V47.449Z" fill="black"/>
<path d="M55.5862 47.449H53.4483V49.587H55.5862V47.449Z" fill="black"/>
<path d="M62 47.449H59.8621V49.587H62V47.449Z" fill="black"/>
<path d="M2.13793 49.587H0V51.7249H2.13793V49.587Z" fill="black"/>
<path d="M14.9655 49.587H12.8276V51.7249H14.9655V49.587Z" fill="black"/>
<path d="M19.2414 49.587H17.1034V51.7249H19.2414V49.587Z" fill="black"/>
<path d="M23.5172 49.587H21.3793V51.7249H23.5172V49.587Z" fill="black"/>
<path d="M25.6552 49.587H23.5172V51.7249H25.6552V49.587Z" fill="black"/>
<path d="M29.931 49.587H27.7931V51.7249H29.931V49.587Z" fill="black"/>
<path d="M38.4828 49.587H36.3448V51.7249H38.4828V49.587Z" fill="black"/>
<path d="M40.6207 49.587H38.4828V51.7249H40.6207V49.587Z" fill="black"/>
<path d="M42.7586 49.587H40.6207V51.7249H42.7586V49.587Z" fill="black"/>
<path d="M44.8965 49.587H42.7586V51.7249H44.8965V49.587Z" fill="black"/>
<path d="M53.4483 49.587H51.3103V51.7249H53.4483V49.587Z" fill="black"/>
<path d="M55.5862 49.587H53.4483V51.7249H55.5862V49.587Z" fill="black"/>
<path d="M59.8621 49.587H57.7241V51.7249H59.8621V49.587Z" fill="black"/>
<path d="M2.13793 51.7249H0V53.8628H2.13793V51.7249Z" fill="black"/>
<path d="M6.41379 51.7249H4.27586V53.8628H6.41379V51.7249Z" fill="black"/>
<path d="M8.55172 51.7249H6.41379V53.8628H8.55172V51.7249Z" fill="black"/>
<path d="M10.6897 51.7249H8.55172V53.8628H10.6897V51.7249Z" fill="black"/>
<path d="M14.9655 51.7249H12.8276V53.8628H14.9655V51.7249Z" fill="black"/>
<path d="M23.5172 51.7249H21.3793V53.8628H23.5172V51.7249Z" fill="black"/>
<path d="M25.6552 51.7249H23.5172V53.8628H25.6552V51.7249Z" fill="black"/>
<path d="M32.069 51.7249H29.931V53.8628H32.069V51.7249Z" fill="black"/>
<path d="M34.2069 51.7249H32.069V53.8628H34.2069V51.7249Z" fill="black"/>
<path d="M40.6207 51.7249H38.4828V53.8628H40.6207V51.7249Z" fill="black"/>
<path d="M42.7586 51.7249H40.6207V53.8628H42.7586V51.7249Z" fill="black"/>
<path d="M44.8965 51.7249H42.7586V53.8628H44.8965V51.7249Z" fill="black"/>
<path d="M47.0345 51.7249H44.8965V53.8628H47.0345V51.7249Z" fill="black"/>
<path d="M49.1724 51.7249H47.0345V53.8628H49.1724V51.7249Z" fill="black"/>
<path d="M51.3103 51.7249H49.1724V53.8628H51.3103V51.7249Z" fill="black"/>
<path d="M53.4483 51.7249H51.3103V53.8628H53.4483V51.7249Z" fill="black"/>
<path d="M55.5862 51.7249H53.4483V53.8628H55.5862V51.7249Z" fill="black"/>
<path d="M57.7241 51.7249H55.5862V53.8628H57.7241V51.7249Z" fill="black"/>
<path d="M59.8621 51.7249H57.7241V53.8628H59.8621V51.7249Z" fill="black"/>
<path d="M62 51.7249H59.8621V53.8628H62V51.7249Z" fill="black"/>
<path d="M2.13793 53.8628H0V56.0008H2.13793V53.8628Z" fill="black"/>
<path d="M6.41379 53.8628H4.27586V56.0008H6.41379V53.8628Z" fill="black"/>
<path d="M8.55172 53.8628H6.41379V56.0008H8.55172V53.8628Z" fill="black"/>
<path d="M10.6897 53.8628H8.55172V56.0008H10.6897V53.8628Z" fill="black"/>
<path d="M14.9655 53.8628H12.8276V56.0008H14.9655V53.8628Z" fill="black"/>
<path d="M21.3793 53.8628H19.2414V56.0008H21.3793V53.8628Z" fill="black"/>
<path d="M23.5172 53.8628H21.3793V56.0008H23.5172V53.8628Z" fill="black"/>
<path d="M25.6552 53.8628H23.5172V56.0008H25.6552V53.8628Z" fill="black"/>
<path d="M27.7931 53.8628H25.6552V56.0008H27.7931V53.8628Z" fill="black"/>
<path d="M34.2069 53.8628H32.069V56.0008H34.2069V53.8628Z" fill="black"/>
<path d="M36.3448 53.8628H34.2069V56.0008H36.3448V53.8628Z" fill="black"/>
<path d="M40.6207 53.8628H38.4828V56.0008H40.6207V53.8628Z" fill="black"/>
<path d="M53.4483 53.8628H51.3103V56.0008H53.4483V53.8628Z" fill="black"/>
<path d="M55.5862 53.8628H53.4483V56.0008H55.5862V53.8628Z" fill="black"/>
<path d="M2.13793 56.0008H0V58.1387H2.13793V56.0008Z" fill="black"/>
<path d="M6.41379 56.0008H4.27586V58.1387H6.41379V56.0008Z" fill="black"/>
<path d="M8.55172 56.0008H6.41379V58.1387H8.55172V56.0008Z" fill="black"/>
<path d="M10.6897 56.0008H8.55172V58.1387H10.6897V56.0008Z" fill="black"/>
<path d="M14.9655 56.0008H12.8276V58.1387H14.9655V56.0008Z" fill="black"/>
<path d="M23.5172 56.0008H21.3793V58.1387H23.5172V56.0008Z" fill="black"/>
<path d="M25.6552 56.0008H23.5172V58.1387H25.6552V56.0008Z" fill="black"/>
<path d="M29.931 56.0008H27.7931V58.1387H29.931V56.0008Z" fill="black"/>
<path d="M32.069 56.0008H29.931V58.1387H32.069V56.0008Z" fill="black"/>
<path d="M44.8965 56.0008H42.7586V58.1387H44.8965V56.0008Z" fill="black"/>
<path d="M47.0345 56.0008H44.8965V58.1387H47.0345V56.0008Z" fill="black"/>
<path d="M51.3103 56.0008H49.1724V58.1387H51.3103V56.0008Z" fill="black"/>
<path d="M2.13793 58.1387H0V60.2766H2.13793V58.1387Z" fill="black"/>
<path d="M14.9655 58.1387H12.8276V60.2766H14.9655V58.1387Z" fill="black"/>
<path d="M23.5172 58.1387H21.3793V60.2766H23.5172V58.1387Z" fill="black"/>
<path d="M25.6552 58.1387H23.5172V60.2766H25.6552V58.1387Z" fill="black"/>
<path d="M27.7931 58.1387H25.6552V60.2766H27.7931V58.1387Z" fill="black"/>
<path d="M32.069 58.1387H29.931V60.2766H32.069V58.1387Z" fill="black"/>
<path d="M34.2069 58.1387H32.069V60.2766H34.2069V58.1387Z" fill="black"/>
<path d="M36.3448 58.1387H34.2069V60.2766H36.3448V58.1387Z" fill="black"/>
<path d="M40.6207 58.1387H38.4828V60.2766H40.6207V58.1387Z" fill="black"/>
<path d="M42.7586 58.1387H40.6207V60.2766H42.7586V58.1387Z" fill="black"/>
<path d="M47.0345 58.1387H44.8965V60.2766H47.0345V58.1387Z" fill="black"/>
<path d="M49.1724 58.1387H47.0345V60.2766H49.1724V58.1387Z" fill="black"/>
<path d="M51.3103 58.1387H49.1724V60.2766H51.3103V58.1387Z" fill="black"/>
<path d="M53.4483 58.1387H51.3103V60.2766H53.4483V58.1387Z" fill="black"/>
<path d="M59.8621 58.1387H57.7241V60.2766H59.8621V58.1387Z" fill="black"/>
<path d="M62 58.1387H59.8621V60.2766H62V58.1387Z" fill="black"/>
<path d="M2.13793 60.2766H0V62.4146H2.13793V60.2766Z" fill="black"/>
<path d="M4.27586 60.2766H2.13793V62.4146H4.27586V60.2766Z" fill="black"/>
<path d="M6.41379 60.2766H4.27586V62.4146H6.41379V60.2766Z" fill="black"/>
<path d="M8.55172 60.2766H6.41379V62.4146H8.55172V60.2766Z" fill="black"/>
<path d="M10.6897 60.2766H8.55172V62.4146H10.6897V60.2766Z" fill="black"/>
<path d="M12.8276 60.2766H10.6897V62.4146H12.8276V60.2766Z" fill="black"/>
<path d="M14.9655 60.2766H12.8276V62.4146H14.9655V60.2766Z" fill="black"/>
<path d="M21.3793 60.2766H19.2414V62.4146H21.3793V60.2766Z" fill="black"/>
<path d="M27.7931 60.2766H25.6552V62.4146H27.7931V60.2766Z" fill="black"/>
<path d="M32.069 60.2766H29.931V62.4146H32.069V60.2766Z" fill="black"/>
<path d="M38.4828 60.2766H36.3448V62.4146H38.4828V60.2766Z" fill="black"/>
<path d="M40.6207 60.2766H38.4828V62.4146H40.6207V60.2766Z" fill="black"/>
<path d="M42.7586 60.2766H40.6207V62.4146H42.7586V60.2766Z" fill="black"/>
<path d="M47.0345 60.2766H44.8965V62.4146H47.0345V60.2766Z" fill="black"/>
<path d="M55.5862 60.2766H53.4483V62.4146H55.5862V60.2766Z" fill="black"/>
<path d="M57.7241 60.2766H55.5862V62.4146H57.7241V60.2766Z" fill="black"/>
</g>
</svg>
